<svg width="224" height="168" viewBox="0 0 224 168" fill="none" xmlns="http://www.w3.org/2000/svg">
<path d="M163.264 115.632V143.713M150.02 135.088L163.264 145.719L176.517 135.088M123.099 111.65L65.5462 111.542M160.612 85.6291V4H43V153.129H123.914M138.066 41.6667H65.5462M138.066 76.6045H65.5462M136.559 111.527C142.04 103.894 150.704 98.7125 160.612 97.9208C161.489 97.8516 162.373 97.8055 163.264 97.8055C181.414 97.8055 196.127 112.519 196.127 130.668C196.127 148.817 181.414 163.53 163.264 163.53C153.809 163.53 145.284 159.525 139.288 153.129C133.784 147.256 130.402 139.362 130.402 130.66C130.402 123.519 132.693 116.916 136.559 111.527ZM136.559 111.527H136.529" stroke="#1DC18D" stroke-width="8" stroke-miterlimit="10" stroke-linecap="round" stroke-linejoin="round"/>
</svg>
