<svg width="34" height="34" viewBox="0 0 34 34" fill="none" xmlns="http://www.w3.org/2000/svg"><path d="M17.117 33.299c9.195 0 16.65-7.454 16.65-16.65C33.766 7.454 26.311 0 17.116 0 7.922 0 .467 7.454.467 16.65c0 9.195 7.455 16.649 16.65 16.649z" fill="#fff"/><path d="M14.688 27.927V17.344H12.89v-3.143h1.796v-.534c0-1.656.506-3.48 1.74-4.603 1.066-1.01 2.555-1.376 3.79-1.376.954 0 1.684.113 2.273.281l-.168 3.284a4.62 4.62 0 00-1.374-.196c-1.403 0-1.993 1.095-1.993 2.442v.702h2.75v3.144h-2.723v10.582h-4.294z" fill="#333"/></svg>