<svg width="34" height="34" viewBox="0 0 34 34" fill="none" xmlns="http://www.w3.org/2000/svg"><path d="M16.65 33.299c9.195 0 16.649-7.454 16.649-16.65C33.299 7.454 25.845 0 16.649 0 7.454 0 0 7.454 0 16.65c0 9.195 7.454 16.649 16.65 16.649z" fill="#fff"/><path fill-rule="evenodd" clip-rule="evenodd" d="M26.259 12.036a7.671 7.671 0 01-2.261.636 4.032 4.032 0 001.732-2.234 7.785 7.785 0 01-2.502.979 3.886 3.886 0 00-2.875-1.274c-2.173 0-3.936 1.808-3.936 4.038 0 .317.033.624.1.92-3.271-.17-6.173-1.775-8.116-4.221a4.113 4.113 0 00-.533 2.032c0 1.4.695 2.636 1.752 3.36a3.863 3.863 0 01-1.785-.503v.05c0 1.956 1.358 3.588 3.16 3.958-.33.095-.678.142-1.038.142-.253 0-.501-.024-.741-.072.501 1.604 1.955 2.772 3.679 2.803a7.779 7.779 0 01-5.83 1.674 10.967 10.967 0 006.036 1.813c7.245 0 11.204-6.153 11.204-11.489 0-.176-.003-.352-.01-.523a8.026 8.026 0 001.964-2.089z" fill="#333"/></svg>