<svg width="34" height="34" viewBox="0 0 34 34" fill="none" xmlns="http://www.w3.org/2000/svg"><path d="M16.883 33.299c9.195 0 16.65-7.454 16.65-16.65C33.533 7.454 26.078 0 16.883 0 7.688 0 .233 7.454.233 16.65c0 9.195 7.455 16.649 16.65 16.649z" fill="#fff"/><path d="M16.706 7.478c5.543 0 10.21 3.501 10.21 8.168 0 1.459-.582 3.21-1.458 4.377 0 0-.29 0-.29.291-.292.291-.584.583-1.168.875-2.918 2.625-7.585 5.835-8.169 5.543-.583-.583.876-2.626-.583-2.918h-.291c-4.96-.874-8.753-4.084-8.753-8.168-.001-4.668 4.667-8.168 10.502-8.168zm-6.128 10.794h2.043c.291 0 .583-.291.583-.584 0-.291-.291-.583-.583-.583h-1.459v-3.501c0-.291-.29-.291-.584-.291-.29 0-.583 0-.583.291v4.084c0 .293.292.584.583.584zm12.839-2.625c0-.292 0-.584-.292-.584h-1.75v-.584h1.75c.292 0 .292-.291.292-.583 0-.291 0-.583-.292-.583H20.79c-.292 0-.292.291-.292.583v3.792c0 .292 0 .584.292.584h2.334c.292 0 .292-.291.292-.584 0-.291 0-.583-.292-.583h-1.75v-.875h1.75c.293 0 .293-.292.293-.584zm-3.794 2.334v-4.376c0-.292-.291-.292-.583-.292s-.584 0-.584.292v2.625l-1.75-2.625c-.292-.292-.292-.292-.583-.292-.292 0-.584 0-.584.291v4.084c0 .292.292.584.584.584.29 0 .584-.291.584-.584v-2.333l2.041 2.625c0 .291 0 .291.292.291h.29s.293.001.293-.29zm-5.25.291c.291 0 .583-.291.583-.584v-4.084c0-.291-.291-.291-.584-.291-.292 0-.583 0-.583.291v4.084c0 .293.29.584.583.584z" fill="#333"/></svg>