<svg width="41" height="40" viewBox="0 0 41 40" fill="none" xmlns="http://www.w3.org/2000/svg"><path d="M20.523 0a19.603 19.603 0 1019.603 19.603A19.623 19.623 0 0020.523 0zm0 31.666a2.262 2.262 0 110-4.525 2.262 2.262 0 010 4.525zm1.508-9.183v.136a1.508 1.508 0 11-3.016 0V21.11a1.508 1.508 0 011.508-1.508c2.494 0 4.524-1.697 4.524-3.77s-2.03-3.77-4.524-3.77-4.524 1.697-4.524 3.77v.754a1.508 1.508 0 01-3.016 0v-.754c0-3.742 3.382-6.786 7.54-6.786 4.158 0 7.54 3.044 7.54 6.786 0 3.276-2.594 6.018-6.032 6.65z" fill="#333"/></svg>