<svg width="16" height="17" viewBox="0 0 16 17" fill="none" xmlns="http://www.w3.org/2000/svg"><path opacity=".99" d="M6.876 11.23a.665.665 0 01-.472-.196L4.529 9.16a.667.667 0 01.943-.943L6.875 9.62l3.654-3.653a.667.667 0 01.943.942l-4.126 4.125a.664.664 0 01-.47.195z" fill="#FF8E3F"/><path opacity=".5" d="M8 1.833A6.667 6.667 0 1014.666 8.5 6.674 6.674 0 008 1.833zm3.47 5.077l-4.125 4.125a.667.667 0 01-.943 0L4.528 9.16a.667.667 0 01.943-.943L6.874 9.62l3.654-3.653a.667.667 0 01.943.942z" fill="#FF8E3F"/></svg>