<svg width="41" height="40" viewBox="0 0 41 40" fill="none" xmlns="http://www.w3.org/2000/svg"><g clip-path="url(#clip0_670_13495)"><path d="M34.395 0H6.405A6.005 6.005 0 00.4 6.005v27.99A6.005 6.005 0 006.404 40h27.991a6.005 6.005 0 006.005-6.005V6.005A6.005 6.005 0 0034.395 0z" fill="#000"/><path d="M27.107 30.702h2.44L13.806 9.157H11.19l15.914 21.542.002.003zm1.544-24.128h4.4L23.44 17.95l11.307 15.478h-8.853L18.96 24.04l-7.935 9.388H6.62L16.903 21.26 6.053 6.574h9.08l6.267 8.582 7.249-8.582h.002z" fill="#fff"/></g><defs><clipPath id="clip0_670_13495"><path fill="#fff" transform="translate(.4)" d="M0 0h40v40H0z"/></clipPath></defs></svg>