<svg width="38" height="39" viewBox="0 0 38 39" fill="none" xmlns="http://www.w3.org/2000/svg"><path d="M20.96 30.602a2.23 2.23 0 010 3.161l-1.105 1.105A11.162 11.162 0 114.069 19.083l4.486-4.484a11.158 11.158 0 0115.311-.462 2.24 2.24 0 01-2.976 3.348 6.694 6.694 0 00-9.181.274l-4.482 4.478a6.696 6.696 0 009.47 9.47l1.104-1.105a2.232 2.232 0 013.158 0zM34.735 4.194a11.175 11.175 0 00-15.785 0l-1.105 1.104a2.236 2.236 0 003.162 3.162l1.104-1.105a6.696 6.696 0 119.47 9.47l-4.484 4.486a6.696 6.696 0 01-9.183.265 2.237 2.237 0 00-3.604.94 2.24 2.24 0 00.628 2.408 11.159 11.159 0 0015.306-.452l4.486-4.484a11.175 11.175 0 00.005-15.79v-.004z" fill="#033864"/></svg>