<svg width="41" height="40" viewBox="0 0 41 40" fill="none" xmlns="http://www.w3.org/2000/svg"><g clip-path="url(#clip0_670_13492)"><path d="M40.359 20.063C40.359 9.068 31.436.145 20.44.145S.523 9.068.523 20.063c0 9.948 7.282 18.194 16.82 19.671V25.806h-5.087v-5.744h5.087v-4.39c0-4.984 2.954-7.753 7.508-7.753 2.175 0 4.43.41 4.43.41v4.862H26.78c-2.482 0-3.261 1.559-3.261 3.118v3.733h5.538l-.882 5.744h-4.656v13.928c9.559-1.457 16.84-9.703 16.84-19.651z" fill="#1877F2"/><path d="M28.195 25.825l.882-5.744h-5.539v-3.733c0-1.58.8-3.118 3.262-3.118h2.502V8.348s-2.256-.41-4.43-.41c-4.554 0-7.508 2.769-7.508 7.753v4.39h-5.087v5.744h5.087v13.928a19.33 19.33 0 003.098.246 19.32 19.32 0 003.097-.246V25.825h4.636z" fill="#fff"/></g><defs><clipPath id="clip0_670_13492"><path fill="#fff" transform="translate(.4)" d="M0 0h40v40H0z"/></clipPath></defs></svg>