<svg width="158" height="35" viewBox="0 0 158 35" fill="none" xmlns="http://www.w3.org/2000/svg"><g clip-path="url(#clip0_674_14751)"><path d="M112.142 24.09h-1.89v10.035h1.89V24.09zm4.632-18.207h-1.89v18.18h1.89V5.883z" fill="#22698F"/><path d="M72.426 14.186a10.034 10.034 0 10.108 20.068 10.034 10.034 0 00-.108-20.068zm0 18.18a8.146 8.146 0 11.054-16.292 8.146 8.146 0 01-.054 16.292zm74.849-18.181a10.034 10.034 0 10.003 20.069 10.034 10.034 0 00-.003-20.069zm0 18.18a8.146 8.146 0 110-16.29 8.146 8.146 0 010 16.29z" fill="#429FB5"/><path d="M50.068 19.057a8.145 8.145 0 118.145-8.145h1.89a10.035 10.035 0 10-10.035 10.035v-1.89z" fill="#22698F"/><path d="M50.067 15.942a8.172 8.172 0 11-8.145 8.145h-1.996a10.035 10.035 0 1010.141-9.902v1.757zM87.52 29.121V5.911h-1.89v23.21a5.03 5.03 0 005.03 5.004v-1.89a3.113 3.113 0 01-3.14-3.114zM9.528 18.02a10.008 10.008 0 006.974 2.928v-1.89a8.145 8.145 0 115.856-2.37l1.331 1.332a10.035 10.035 0 10-14.187 0" fill="#22698F"/><path d="M102.106 14.185a10.037 10.037 0 00-7.096 17.131 10.034 10.034 0 107.096-17.13zm0 18.18a8.144 8.144 0 110-16.287 8.144 8.144 0 010 16.288zm22.812-18.18a10.037 10.037 0 00-9.283 6.227 10.038 10.038 0 007.408 13.667 10.034 10.034 0 008.924-17.002 10.036 10.036 0 00-7.049-2.892zm0 18.18a8.146 8.146 0 118.172-8.278 8.151 8.151 0 01-2.386 5.76 8.142 8.142 0 01-5.759 2.386" fill="#429FB5"/><path d="M9.209 7.506a8.864 8.864 0 00-.612 1.97 8.172 8.172 0 016.734 1.837 8.16 8.16 0 01.772-.905l.532-.48A10.169 10.169 0 009.21 7.507z" fill="#22698F"/><path d="M30.317 10.406A10.035 10.035 0 0013.31 17.38h1.89a8.145 8.145 0 112.368 5.883l-1.33 1.33A10.041 10.041 0 1030.45 10.406" fill="#429FB5"/><path d="M23.715 16.98a10.062 10.062 0 00-6.974-2.794v1.89a8.145 8.145 0 11-6.309 2.715 6.31 6.31 0 01-.905-.773l-.479-.505a10.035 10.035 0 1014.667-.533z" fill="#22698F"/><path d="M15.81 23.264a8.17 8.17 0 01-12.58-.997 8.172 8.172 0 013.397-12.153 8.57 8.57 0 01.426-2.182 9.742 9.742 0 00-4.126 2.475 10.035 10.035 0 1017.142 7.214h-1.89a8.118 8.118 0 01-2.369 5.643z" fill="#429FB5"/></g><defs><clipPath id="clip0_674_14751"><path fill="#fff" transform="translate(0 .877)" d="M0 0h157.312v33.246H0z"/></clipPath></defs></svg>